<?xml version="1.0" encoding="UTF-8" ?>
<!DOCTYPE svg PUBLIC "-//W3C//DTD SVG 1.1//EN" "http://www.w3.org/Graphics/SVG/1.1/DTD/svg11.dtd">
<svg width="1550pt" height="709pt" viewBox="0 0 1550 709" version="1.1" xmlns="http://www.w3.org/2000/svg">
<g id="#fffeffff">
<path fill="#fffeff" opacity="1.00" d=" M 1070.45 2.58 C 1073.62 1.16 1076.01 5.12 1075.36 7.92 C 1073.86 25.56 1073.02 43.27 1070.98 60.85 C 1070.58 64.65 1066.10 64.29 1063.38 63.66 C 1039.49 59.02 1015.48 55.05 991.63 50.27 C 988.65 49.97 987.31 46.35 988.90 43.97 C 991.29 41.78 994.42 40.66 997.26 39.19 C 1021.64 26.96 1045.82 14.27 1070.45 2.58 Z" />
<path fill="#fffeff" opacity="1.00" d=" M 1095.31 2.23 C 1099.83 1.85 1104.20 3.55 1108.60 4.37 C 1230.67 30.80 1352.82 56.85 1474.92 83.13 C 1478.72 83.99 1482.62 84.52 1486.34 85.74 C 1490.79 87.01 1491.48 94.28 1487.02 96.05 C 1464.27 108.40 1441.20 120.20 1418.40 132.47 C 1414.63 134.51 1410.59 137.27 1406.10 135.96 C 1304.21 114.50 1202.32 93.01 1100.42 71.59 C 1096.70 70.75 1092.77 70.41 1089.33 68.70 C 1086.57 67.22 1086.72 63.72 1086.88 61.04 C 1088.04 44.57 1089.69 28.14 1090.62 11.65 C 1090.89 8.14 1091.20 3.35 1095.31 2.23 Z" />
<path fill="#fffeff" opacity="1.00" d=" M 978.30 64.22 C 979.73 63.73 981.28 64.05 982.77 64.22 C 1122.46 93.49 1262.11 122.96 1401.80 152.21 C 1404.83 152.73 1408.53 154.33 1408.35 158.00 C 1408.71 168.68 1407.70 179.35 1407.66 190.02 C 1407.62 203.35 1406.27 216.64 1406.32 229.98 C 1404.87 278.33 1403.28 326.67 1401.68 375.02 C 1401.64 387.37 1400.53 399.70 1400.58 412.06 C 1400.15 423.67 1399.57 435.27 1399.49 446.89 C 1398.79 458.03 1398.70 469.18 1398.39 480.34 C 1397.51 492.87 1397.85 505.45 1397.05 517.99 C 1396.52 527.97 1396.76 537.98 1396.12 547.96 C 1395.23 561.63 1395.40 575.34 1394.73 589.02 C 1394.75 604.69 1393.23 620.31 1393.27 635.98 C 1392.60 649.65 1392.75 663.36 1391.89 677.03 C 1391.41 684.70 1391.98 692.42 1391.20 700.08 C 1390.99 703.80 1387.12 707.21 1383.39 705.66 C 1244.40 664.46 1105.24 623.80 966.21 582.72 C 962.16 581.44 957.94 580.61 954.05 578.88 C 951.74 577.96 950.85 575.33 951.03 573.03 C 951.94 552.69 952.78 532.33 953.73 511.99 C 954.75 499.34 954.94 486.66 955.48 473.99 C 957.26 447.59 957.57 421.12 959.45 394.73 C 960.05 373.91 961.32 353.12 962.34 332.32 C 963.78 293.35 966.11 254.43 967.58 215.47 C 969.09 196.92 968.93 178.28 970.45 159.73 C 971.28 130.44 973.37 101.21 974.32 71.93 C 974.19 68.89 975.03 65.27 978.30 64.22 M 1047.38 163.34 C 1041.20 168.24 1036.71 175.29 1035.07 183.02 C 1032.79 193.39 1035.25 204.78 1041.82 213.16 C 1043.83 215.78 1046.56 217.74 1048.74 220.23 C 1048.36 226.24 1046.66 232.11 1046.05 238.11 C 1041.09 273.25 1042.60 309.38 1051.10 343.87 C 1056.87 368.13 1067.05 391.66 1082.84 411.12 C 1092.11 422.62 1103.60 432.35 1116.56 439.46 C 1152.18 459.06 1197.38 461.06 1234.04 443.07 C 1258.63 430.96 1277.54 409.64 1291.26 386.30 C 1310.81 352.40 1319.06 313.03 1320.20 274.21 C 1322.52 272.13 1325.41 270.82 1327.78 268.78 C 1339.19 259.13 1343.36 242.01 1337.64 228.19 C 1331.65 212.02 1312.21 203.80 1295.99 207.90 C 1286.30 209.98 1278.27 217.07 1273.71 225.69 C 1265.81 241.30 1271.67 262.25 1286.32 271.73 C 1289.37 273.76 1292.97 274.64 1296.26 276.19 C 1296.00 296.42 1292.86 316.67 1287.12 336.08 C 1278.17 365.98 1261.65 394.46 1236.60 413.62 C 1208.78 434.32 1169.95 436.80 1138.42 423.51 C 1121.80 416.60 1106.96 405.07 1096.92 390.05 C 1083.52 370.12 1074.91 347.18 1070.61 323.61 C 1064.96 291.51 1065.86 258.31 1072.29 226.42 C 1078.69 225.29 1085.23 223.61 1090.29 219.28 C 1101.20 210.53 1106.65 195.25 1103.21 181.62 C 1101.33 174.02 1096.37 167.46 1090.22 162.76 C 1077.84 153.61 1059.53 153.93 1047.38 163.34 Z" />
<path fill="#fffeff" opacity="1.00" d=" M 1504.35 105.54 C 1508.27 104.73 1511.71 108.36 1511.46 112.21 C 1513.16 137.65 1515.42 163.05 1517.36 188.48 C 1520.83 235.32 1524.49 282.14 1527.94 328.98 C 1531.44 378.01 1535.56 427.00 1539.08 476.04 C 1540.98 499.26 1542.60 522.51 1544.57 545.74 C 1545.62 560.51 1547.39 575.24 1547.96 590.04 C 1548.22 592.98 1545.91 595.13 1543.85 596.82 C 1504.71 626.34 1465.69 656.03 1426.59 685.61 C 1423.66 687.74 1421.00 690.28 1417.74 691.91 C 1414.35 693.46 1409.48 691.03 1409.68 687.02 C 1409.33 677.00 1410.26 666.99 1410.33 656.98 C 1410.37 642.29 1411.52 627.64 1411.46 612.95 C 1412.66 588.26 1412.98 563.55 1413.64 538.85 C 1414.51 525.25 1414.13 511.61 1414.93 498.02 C 1415.52 487.04 1415.17 476.03 1415.85 465.06 C 1416.52 453.39 1416.16 441.70 1416.88 430.04 C 1417.50 419.05 1417.17 408.04 1417.83 397.06 C 1418.52 384.05 1418.19 371.00 1419.02 357.99 C 1419.38 344.65 1419.55 331.31 1420.22 317.98 C 1420.19 302.96 1421.37 287.99 1421.40 272.98 C 1421.45 264.64 1422.17 256.32 1422.28 247.98 C 1422.33 232.31 1423.51 216.67 1423.50 201.00 C 1424.58 184.07 1424.06 167.07 1425.40 150.16 C 1425.44 147.50 1427.80 145.96 1429.88 144.81 C 1453.54 132.10 1477.37 119.71 1500.98 106.91 C 1502.04 106.37 1503.15 105.84 1504.35 105.54 Z" />
<path fill="#fffeff" opacity="1.00" d=" M 498.42 143.46 C 503.93 142.24 509.17 147.50 508.65 152.98 C 508.63 244.65 508.63 336.32 508.65 427.99 C 508.63 438.25 514.78 448.61 524.39 452.60 C 531.97 455.42 540.31 455.29 548.24 454.32 C 568.10 451.47 587.42 438.59 594.22 419.16 C 598.83 406.55 594.03 393.07 596.14 380.15 C 596.71 375.85 600.15 372.86 603.31 370.27 C 612.48 362.83 622.91 356.90 634.06 353.00 C 636.73 352.21 639.77 351.28 642.45 352.53 C 645.04 354.02 645.42 357.34 645.72 360.03 C 646.54 373.95 645.34 387.91 646.38 401.82 C 647.68 416.22 662.81 426.99 676.85 424.73 C 694.79 422.09 709.29 407.56 714.74 390.68 C 718.44 380.51 717.40 369.53 716.70 358.96 C 716.41 353.57 716.87 347.11 721.66 343.67 C 731.01 336.89 741.84 332.60 751.76 326.75 C 754.02 325.58 756.51 323.90 759.19 324.67 C 763.02 325.48 766.13 328.92 765.97 332.94 C 766.34 343.29 766.03 353.65 766.13 364.00 C 766.23 369.40 765.72 375.04 767.78 380.17 C 771.29 389.20 779.95 395.74 789.40 397.41 C 795.54 398.47 801.76 396.79 807.39 394.40 C 822.63 387.79 833.84 372.98 836.55 356.64 C 837.56 350.48 836.94 344.21 837.00 338.00 C 837.03 317.65 836.99 297.29 837.01 276.93 C 836.80 272.24 838.87 267.43 843.03 265.02 C 851.77 259.75 860.57 254.57 869.29 249.27 C 871.72 247.86 874.16 246.23 877.01 245.84 C 882.04 245.38 887.00 249.82 886.67 254.96 C 886.73 283.30 886.63 311.65 886.71 339.99 C 887.27 359.97 879.77 379.38 868.86 395.84 C 860.00 408.99 849.51 421.42 836.02 430.03 C 814.61 444.35 786.89 450.95 761.85 443.12 C 755.88 441.47 751.10 436.94 744.98 435.78 C 742.15 435.15 739.58 436.76 737.70 438.69 C 724.53 452.01 708.43 462.61 690.64 468.63 C 674.76 474.01 657.20 475.03 641.12 469.89 C 635.60 468.51 630.68 465.58 625.36 463.70 C 622.36 462.59 619.03 463.59 616.91 465.91 C 592.93 490.41 558.53 505.26 524.05 503.31 C 515.14 502.83 506.24 501.18 497.86 498.10 C 481.36 491.31 469.04 476.50 463.24 459.85 C 459.27 449.04 458.49 437.39 459.32 425.99 C 459.41 345.33 459.33 264.66 459.35 184.00 C 459.50 179.33 458.75 174.53 460.00 169.96 C 462.28 163.78 469.09 161.59 474.02 158.04 C 482.09 153.11 489.58 146.93 498.42 143.46 Z" />
<path fill="#fffeff" opacity="1.00" d=" M 229.41 148.60 C 233.88 147.85 239.04 148.20 242.38 151.63 C 246.04 155.39 246.54 160.94 246.67 165.92 C 246.93 176.88 247.62 188.51 242.60 198.63 C 239.85 204.27 233.40 206.24 227.80 207.74 C 216.32 210.57 204.93 213.78 193.43 216.50 C 188.68 217.55 184.09 219.61 179.17 219.69 C 173.65 219.08 170.19 212.77 171.57 207.59 C 173.89 196.51 177.05 185.63 179.46 174.57 C 180.26 171.23 180.89 167.73 182.79 164.80 C 184.54 162.11 187.52 160.64 190.35 159.36 C 202.78 153.94 216.10 150.92 229.41 148.60 Z" />
<path fill="#fffeff" opacity="1.00" d=" M 693.48 151.60 C 703.39 151.08 713.48 150.59 723.26 152.70 C 741.18 156.17 758.27 164.79 770.93 178.06 C 780.12 187.53 786.68 199.52 789.56 212.42 C 793.34 227.28 791.62 243.61 784.09 257.04 C 778.00 268.41 767.44 277.62 754.80 280.78 C 701.95 293.76 649.52 308.48 596.40 320.40 C 591.93 321.34 587.54 322.75 582.97 323.11 C 577.48 323.51 572.46 317.56 574.15 312.20 C 576.84 301.87 580.84 291.93 583.69 281.64 C 585.00 276.74 587.70 271.30 593.19 270.25 C 641.31 258.19 689.50 246.37 737.39 233.38 C 739.75 232.70 742.60 231.64 743.15 228.90 C 744.10 224.52 741.56 220.37 739.07 216.98 C 734.47 211.11 728.55 205.81 721.24 203.72 C 708.59 200.02 695.01 200.32 682.25 203.29 C 664.94 207.13 648.67 214.37 631.88 219.88 C 628.85 220.85 624.56 221.65 622.66 218.33 C 619.97 213.72 620.77 208.10 620.60 202.99 C 620.88 194.78 619.70 186.29 622.24 178.33 C 623.93 173.09 628.69 169.78 633.37 167.41 C 651.88 157.61 672.74 153.26 693.48 151.60 Z" />
<path fill="#fffeff" opacity="1.00" d=" M 35.24 157.17 C 38.84 155.78 43.20 154.09 46.86 156.20 C 49.97 158.35 49.73 162.59 49.90 165.93 C 50.13 236.30 49.95 306.68 50.01 377.05 C 50.29 388.83 59.17 400.17 71.06 401.99 C 89.56 405.62 107.29 397.49 125.18 394.24 C 127.50 393.53 130.92 393.47 131.72 390.66 C 132.76 386.71 131.08 382.75 130.05 378.98 C 126.78 368.59 126.29 357.47 127.68 346.71 C 130.78 323.99 142.11 303.12 156.76 285.77 C 170.51 268.89 189.51 256.12 210.66 250.68 C 225.77 247.05 242.17 246.46 256.89 252.08 C 273.93 258.43 288.33 271.93 295.20 288.83 C 301.29 304.06 301.75 321.17 298.05 337.04 C 297.10 341.34 295.26 345.47 295.04 349.91 C 294.88 352.11 296.72 354.41 299.06 354.10 C 303.71 353.96 308.20 352.57 312.75 351.70 C 326.60 348.77 340.83 345.62 352.94 337.93 C 362.14 332.17 369.37 323.33 373.19 313.16 C 376.76 303.18 376.23 292.42 376.03 282.00 C 375.93 261.66 376.11 241.32 375.94 220.99 C 376.01 217.72 375.88 214.28 377.23 211.23 C 378.82 207.91 382.13 205.97 385.14 204.11 C 393.57 199.24 401.86 194.15 410.24 189.20 C 413.41 187.26 417.57 185.91 420.99 188.08 C 424.57 189.95 425.78 194.17 425.67 197.95 C 425.61 222.96 425.67 247.98 425.63 273.00 C 425.56 283.10 426.20 293.30 424.25 303.28 C 420.55 325.07 409.37 345.24 393.89 360.89 C 376.10 378.98 352.61 391.37 327.58 395.63 C 252.56 412.33 177.71 429.75 102.75 446.71 C 86.18 450.59 68.90 453.19 51.98 450.04 C 39.42 447.78 27.91 441.04 19.19 431.81 C 8.57 420.84 2.52 406.27 0.00 391.36 L 0.00 181.55 C 1.46 177.05 3.40 172.20 7.75 169.78 C 16.52 164.78 26.00 161.18 35.24 157.17 M 215.34 297.35 C 191.49 302.66 173.18 327.53 177.00 352.01 C 178.56 364.96 191.08 375.14 203.98 374.79 C 231.76 374.81 255.21 346.00 250.13 318.81 C 248.92 311.72 244.82 305.18 238.76 301.25 C 232.03 296.49 223.24 295.55 215.34 297.35 Z" />
<path fill="#fffeff" opacity="1.00" d=" M 376.37 418.45 C 385.17 416.64 394.37 418.84 402.29 422.78 C 418.25 430.95 428.83 447.43 432.28 464.74 C 434.63 477.76 433.68 491.50 428.79 503.85 C 422.33 519.94 410.29 533.43 395.79 542.78 C 377.25 554.98 355.48 561.03 333.80 564.64 C 329.29 565.25 324.65 565.74 320.17 564.78 C 316.76 564.06 314.40 561.30 312.14 558.88 C 304.70 550.81 299.02 541.36 292.21 532.80 C 287.86 527.97 291.41 519.41 297.76 518.73 C 312.79 516.58 328.07 515.73 342.82 511.89 C 353.60 509.14 364.24 504.95 373.09 498.09 C 379.37 493.06 384.26 485.39 383.78 477.09 C 383.59 474.78 383.30 472.09 381.40 470.51 C 379.54 469.00 376.99 469.30 374.82 469.75 C 333.81 480.07 292.82 490.48 251.82 500.82 C 246.40 502.13 240.78 504.31 235.16 502.90 C 231.01 501.94 228.21 498.51 225.41 495.58 C 218.75 488.25 211.40 481.57 204.89 474.11 C 201.14 470.31 202.25 463.44 206.68 460.68 C 210.26 458.66 214.47 458.35 218.38 457.34 C 271.24 445.18 323.47 430.45 376.37 418.45 Z" />
</g>
</svg>
